<svg width="58" height="15" viewBox="0 0 58 15" fill="none" xmlns="http://www.w3.org/2000/svg">
<path d="M10.3787 12.0174V14.2024H3.82373V12.0174H10.3787ZM12.0174 10.3787V3.82373C12.0174 2.91867 11.2837 2.18499 10.3787 2.18499H3.82373C2.91867 2.18499 2.18499 2.91867 2.18499 3.82373V10.3787C2.18499 11.2837 2.91867 12.0174 3.82373 12.0174V14.2024C1.77795 14.2024 0.107244 12.5958 0.00480099 10.5755L0 10.3787V3.82373C1.0558e-07 1.71194 1.71194 1.05577e-07 3.82373 0H10.3787L10.5755 0.00480099C12.5958 0.107244 14.2024 1.77795 14.2024 3.82373V10.3787L14.1976 10.5755C14.0985 12.5306 12.5306 14.0985 10.5755 14.1976L10.3787 14.2024V12.0174C11.2837 12.0174 12.0174 11.2837 12.0174 10.3787Z" fill="white"/>
<path d="M52.815 11.6971V11.9648C52.815 12.3318 53.0138 12.5307 53.3809 12.5307H57.6788C57.8929 12.5307 58 12.6377 58 12.8519V13.4637C58 13.6778 57.8929 13.7849 57.6788 13.7849H52.9832C51.9585 13.7849 51.3926 13.196 51.3926 12.1865V10.03C51.3926 9.02049 51.9585 8.43164 52.9832 8.43164H57.6788C57.8929 8.43164 58 8.53871 58 8.75283V9.36463C58 9.57876 57.8929 9.68582 57.6788 9.68582H53.3809C53.0138 9.68582 52.815 9.88466 52.815 10.2517V10.5194H57.067C57.2811 10.5194 57.3882 10.6265 57.3882 10.8406V11.3759C57.3882 11.59 57.2811 11.6971 57.067 11.6971H52.815Z" fill="white"/>
<path d="M44.8424 10.2517C44.8424 9.88466 44.6435 9.68582 44.2765 9.68582H42.7852C42.4181 9.68582 42.2193 9.88466 42.2193 10.2517V13.4637C42.2193 13.6778 42.1122 13.7849 41.8981 13.7849H41.1181C40.9039 13.7849 40.7969 13.6778 40.7969 13.4637V10.03C40.7969 9.02049 41.3628 8.43164 42.3875 8.43164H44.1923C44.8347 8.43164 45.2936 8.66871 45.5536 9.08932C45.806 8.66871 46.2725 8.43164 46.9148 8.43164H48.7196C49.7444 8.43164 50.3103 9.02049 50.3103 10.03V13.4637C50.3103 13.6778 50.2032 13.7849 49.9891 13.7849H49.2091C48.9949 13.7849 48.8879 13.6778 48.8879 13.4637V10.2517C48.8879 9.88466 48.689 9.68582 48.322 9.68582H46.8307C46.4636 9.68582 46.2648 9.88466 46.2648 10.2517V13.4637C46.2648 13.6778 46.1577 13.7849 45.9436 13.7849H45.1636C44.9494 13.7849 44.8424 13.6778 44.8424 13.4637V10.2517Z" fill="white"/>
<path d="M32.9189 10.03C32.9189 9.02049 33.4849 8.43164 34.5096 8.43164H38.0886C39.1134 8.43164 39.6793 9.02049 39.6793 10.03V13.4637C39.6793 13.6778 39.5722 13.7849 39.3581 13.7849H38.5781C38.3639 13.7849 38.2569 13.6778 38.2569 13.4637V12.2783H34.3414V13.4637C34.3414 13.6778 34.2343 13.7849 34.0202 13.7849H33.2401C33.026 13.7849 32.9189 13.6778 32.9189 13.4637V10.03ZM38.2569 11.0241V10.2517C38.2569 9.88466 38.058 9.68582 37.691 9.68582H34.9073C34.5402 9.68582 34.3414 9.88466 34.3414 10.2517V11.0241H38.2569Z" fill="white"/>
<path d="M26.7398 13.4637C26.7398 13.6778 26.6327 13.7849 26.4186 13.7849H25.6386C25.4244 13.7849 25.3174 13.6778 25.3174 13.4637V8.75283C25.3174 8.53871 25.4244 8.43164 25.6386 8.43164H30.2653C31.29 8.43164 31.8942 8.79107 31.8942 9.80053V10.1676C31.8942 10.8635 31.6112 11.2459 31.0989 11.4218C31.6112 11.5977 31.8942 11.9877 31.8942 12.676V13.4637C31.8942 13.6778 31.7871 13.7849 31.573 13.7849H30.793C30.5788 13.7849 30.4718 13.6778 30.4718 13.4637V12.653C30.4718 12.2477 30.2347 12.0489 29.8064 12.0489H26.7398V13.4637ZM30.4718 10.4123V10.0682C30.4718 9.80053 30.3188 9.68582 30.0282 9.68582H26.7398V10.7947H30.0282C30.3188 10.7947 30.4718 10.68 30.4718 10.4123Z" fill="white"/>
<path d="M19.3072 11.8501V13.4637C19.3072 13.6778 19.2001 13.7849 18.986 13.7849H18.206C17.9918 13.7849 17.8848 13.6778 17.8848 13.4637V10.03C17.8848 9.02049 18.4507 8.43164 19.4754 8.43164H24.0792C24.2933 8.43164 24.4004 8.53871 24.4004 8.75283V9.36463C24.4004 9.57876 24.2933 9.68582 24.0792 9.68582H19.8731C19.506 9.68582 19.3072 9.88466 19.3072 10.2517V10.5959H23.4674C23.6815 10.5959 23.7886 10.7029 23.7886 10.9171V11.5289C23.7886 11.743 23.6815 11.8501 23.4674 11.8501H19.3072Z" fill="white"/>
<path d="M45.8885 6.00751C44.8638 6.00751 44.2979 5.41866 44.2979 4.4092V2.25261C44.2979 1.24315 44.8638 0.654297 45.8885 0.654297H49.6205C50.6452 0.654297 51.2111 1.24315 51.2111 2.25261V4.4092C51.2111 5.41866 50.6452 6.00751 49.6205 6.00751H45.8885ZM49.2228 4.75333C49.5899 4.75333 49.7887 4.5545 49.7887 4.18742V2.47439C49.7887 2.10731 49.5899 1.90848 49.2228 1.90848H46.2862C45.9191 1.90848 45.7203 2.10731 45.7203 2.47439V4.18742C45.7203 4.5545 45.9191 4.75333 46.2862 4.75333H49.2228Z" fill="white"/>
<path d="M36.4814 2.25261C36.4814 1.24315 37.0474 0.654297 38.0721 0.654297H41.6205C42.6453 0.654297 43.2112 1.24315 43.2112 2.25261V5.68632C43.2112 5.90045 43.1041 6.00751 42.89 6.00751H42.11C41.8958 6.00751 41.7888 5.90045 41.7888 5.68632V2.47439C41.7888 2.10731 41.5899 1.90848 41.2229 1.90848H38.4698C38.1027 1.90848 37.9039 2.10731 37.9039 2.47439V5.68632C37.9039 5.90045 37.7968 6.00751 37.5827 6.00751H36.8026C36.5885 6.00751 36.4814 5.90045 36.4814 5.68632V2.25261Z" fill="white"/>
<path d="M30.0721 6.00751C29.0474 6.00751 28.4814 5.41866 28.4814 4.4092V2.25261C28.4814 1.24315 29.0474 0.654297 30.0721 0.654297H33.8041C34.8288 0.654297 35.3947 1.24315 35.3947 2.25261V4.4092C35.3947 5.41866 34.8288 6.00751 33.8041 6.00751H30.0721ZM33.4064 4.75333C33.7735 4.75333 33.9723 4.5545 33.9723 4.18742V2.47439C33.9723 2.10731 33.7735 1.90848 33.4064 1.90848H30.4698C30.1027 1.90848 29.9039 2.10731 29.9039 2.47439V4.18742C29.9039 4.5545 30.1027 4.75333 30.4698 4.75333H33.4064Z" fill="white"/>
<path d="M21.9303 2.47439C21.9303 2.10731 21.7314 1.90848 21.3644 1.90848H19.8731C19.506 1.90848 19.3072 2.10731 19.3072 2.47439V5.68632C19.3072 5.90045 19.2001 6.00751 18.986 6.00751H18.206C17.9918 6.00751 17.8848 5.90045 17.8848 5.68632V2.25261C17.8848 1.24315 18.4507 0.654297 19.4754 0.654297H21.2802C21.9226 0.654297 22.3815 0.891368 22.6415 1.31198C22.8938 0.891368 23.3603 0.654297 24.0027 0.654297H25.8075C26.8323 0.654297 27.3982 1.24315 27.3982 2.25261V5.68632C27.3982 5.90045 27.2911 6.00751 27.077 6.00751H26.297C26.0828 6.00751 25.9758 5.90045 25.9758 5.68632V2.47439C25.9758 2.10731 25.7769 1.90848 25.4099 1.90848H23.9186C23.5515 1.90848 23.3527 2.10731 23.3527 2.47439V5.68632C23.3527 5.90045 23.2456 6.00751 23.0315 6.00751H22.2515C22.0373 6.00751 21.9303 5.90045 21.9303 5.68632V2.47439Z" fill="white"/>
</svg>
